<svg xmlns="http://www.w3.org/2000/svg" xmlns:xlink="http://www.w3.org/1999/xlink" width="50" zoomAndPan="magnify" viewBox="0 0 37.5 37.499999" height="50" preserveAspectRatio="xMidYMid meet" version="1.0"><defs><clipPath id="804263e5b3"><path d="M 2.082031 2.183594 L 21 2.183594 L 21 28 L 2.082031 28 Z M 2.082031 2.183594 " clip-rule="nonzero"/></clipPath><clipPath id="1c3636bbc7"><path d="M 19 2.183594 L 34.648438 2.183594 L 34.648438 28 L 19 28 Z M 19 2.183594 " clip-rule="nonzero"/></clipPath></defs><g clip-path="url(#804263e5b3)"><path fill="#009cdf" d="M 20.886719 14 C 20.394531 11.558594 18.527344 5.054688 15.71875 2.183594 C 4.554688 14.40625 2.085938 27.71875 2.085938 27.71875 C 2.085938 27.71875 8.992188 17.453125 20.886719 14 Z M 20.886719 14 " fill-opacity="1" fill-rule="nonzero"/></g><path fill="#172e73" d="M 3.71875 31.140625 C 19.820312 34.753906 32.519531 30.25 32.519531 30.25 C 32.519531 30.25 20.226562 29.363281 11.308594 20.726562 C 9.453125 22.378906 4.785156 27.257812 3.71875 31.140625 Z M 3.71875 31.140625 " fill-opacity="1" fill-rule="nonzero"/><g clip-path="url(#1c3636bbc7)"><path fill="#0061a9" d="M 21.886719 25.707031 C 24.234375 26.5 30.769531 28.125 34.644531 27.113281 C 29.703125 11.28125 19.480469 2.46875 19.480469 2.46875 C 19.480469 2.46875 24.863281 13.621094 21.886719 25.707031 Z M 21.886719 25.707031 " fill-opacity="1" fill-rule="nonzero"/></g></svg>